{"title":"Making The Rules 2014 WEBrip XVID AC3 ACAB","uid":10051013,"size":1375450652,"categoryP":"video","categoryS":"movies","magnet":"?xt=urn:btih:1570be82df82c2add9efebc7527da3306f3e4eb2&amp;dn=Making+The+Rules+2014+WEBrip+XVID+AC3+ACAB&amp;tr=udp%3A%2F%2Ftracker.openbittorrent.com%3A80&amp;tr=udp%3A%2F%2Fopen.demonii.com%3A1337&amp;tr=udp%3A%2F%2Ftracker.coppersurfer.tk%3A6969&amp;tr=udp%3A%2F%2Fexodus.desync.com%3A6969","seeders":1,"leechers":0,"uploader":"Xetron","files":2,"time":1398607576,"description":" &lt;a href=&quot;http://s1.postimg.org/414h14z4f/1971397_big.jpg&quot; rel=&quot;nofollow&quot; target=&quot;_NEW&quot;&gt;http://s1.postimg.org/414h14z4f/1971397_big.jpg&lt;/a&gt;\n\nFormat                                   : AVI\nFormat/Info                              : Audio Video Interleave\nFile size                                : 1.24 GiB\nDuration                                 : 1h 17mn\nOverall bit rate                         : 2 287 Kbps\nWriting library                          : VirtualDub build 30091/release\n\nVideo\nID                                       : 0\nFormat                                   : MPEG-4 Visual\nFormat profile                           : Advanced Simple@L5\nFormat settings, BVOP                    : 2\nFormat settings, QPel                    : No\nFormat settings, GMC                     : No warppoints\nFormat settings, Matrix                  : Default (H.263)\nMuxing mode                              : Packed bitstream\nCodec ID                                 : XVID\nCodec ID/Hint                            : XviD\nDuration                                 : 1h 17mn\nBit rate                                 : 1 894 Kbps\nWidth                                    : 720 pixels\nHeight                                   : 400 pixels\nDisplay aspect ratio                     : 16:9\nFrame rate                               : 23.976 fps\nColor space                              : YUV\nChroma subsampling                       : 4:2:0\nBit depth                                : 8 bits\nScan type                                : Progressive\nCompression mode                         : Lossy\nBits/(Pixel*Frame)                       : 0.274\nStream size                              : 1.03 GiB (83%)\nWriting library                          : XviD 1.2.1 (UTC 2008-12-04)\n\nAudio\nID                                       : 1\nFormat                                   : AC-3\nFormat/Info                              : Audio Coding 3\nMode extension                           : CM (complete main)\nFormat settings, Endianness              : Big\nCodec ID                                 : 2000\nDuration                                 : 1h 17mn\nBit rate mode                            : Constant\nBit rate                                 : 384 Kbps\nChannel(s)                               : 6 channels\nChannel positions                        : Front: L C R, Side: L R, LFE\nSampling rate                            : 48.0 KHz\nBit depth                                : 16 bits\nCompression mode                         : Lossy\nStream size                              : 214 MiB (17%)\n\nScreens - &lt;a href=&quot;\nhttp://img845.imageshack.us/img845/8250/w0io.png&quot; rel=&quot;nofollow&quot; target=&quot;_NEW&quot;&gt;\nhttp://img845.imageshack.us/img845/8250/w0io.png&lt;/a&gt; &lt;a href=&quot;\nhttp://img845.imageshack.us/img845/5245/p9xj.png&quot; rel=&quot;nofollow&quot; target=&quot;_NEW&quot;&gt;\nhttp://img845.imageshack.us/img845/5245/p9xj.png&lt;/a&gt; &lt;a href=&quot;\nhttp://img843.imageshack.us/img843/8404/p6mf.png&quot; rel=&quot;nofollow&quot; target=&quot;_NEW&quot;&gt;\nhttp://img843.imageshack.us/img843/8404/p6mf.png&lt;/a&gt; &lt;a href=&quot;\nhttp://img843.imageshack.us/img843/7662/8h83.png&quot; rel=&quot;nofollow&quot; target=&quot;_NEW&quot;&gt;\nhttp://img843.imageshack.us/img843/7662/8h83.png&lt;/a&gt;\n","torrent":{"xt":"urn:btih:1570be82df82c2add9efebc7527da3306f3e4eb2","amp;dn":"Making+The+Rules+2014+WEBrip+XVID+AC3+ACAB","amp;tr":["udp%3A%2F%2Ftracker.openbittorrent.com%3A80","udp%3A%2F%2Fopen.demonii.com%3A1337","udp%3A%2F%2Ftracker.coppersurfer.tk%3A6969","udp%3A%2F%2Fexodus.desync.com%3A6969"],"infoHash":"1570be82df82c2add9efebc7527da3306f3e4eb2","infoHashBuffer":{"type":"Buffer","data":[21,112,190,130,223,130,194,173,217,239,235,199,82,125,163,48,111,62,78,178]},"announce":[],"urlList":[]}}